<svg data-name="Calque 1" xmlns="http://www.w3.org/2000/svg" xmlns:xlink="http://www.w3.org/1999/xlink" viewBox="0 0 72.44 64.04"><defs><linearGradient id="a" data-name="Dégradé sans nom 274" x1="23.05" y1="65.26" x2="23.05" y2="26.04" gradientTransform="rotate(17.95 25.075 43.51)" gradientUnits="userSpaceOnUse"><stop offset="0" stop-color="#0ff"/><stop offset=".57" stop-color="#8f00ff"/><stop offset="1" stop-color="#ff00d4"/></linearGradient><linearGradient id="b" data-name="Dégradé sans nom 274" x1="45.06" y1="43.24" x2="45.06" y2="1" xlink:href="#a"/></defs><path d="M31.15 53.3c-3.84 6.7-7.84 12.49-20.61 8.35-3.49-1.13-6.43-2.37-9.16-3.89l5.22-9.02c.82.5 2.04 1.01 3.18 1.38 3.39 1.1 4.68.65 6.15-1.92l8.99-15.53c2.16-3.72 6.62-5.44 10.71-4.11l8.25 2.67L31.15 53.3Z" style="fill:url(#a);stroke:#fff;stroke-miterlimit:10;stroke-width:2px"/><path d="m40.03 36.88-3.12 6.36H18.85L38.93 6.23C40.68 3.01 44.05 1 47.72 1h17.33l6.24 42.24H53.83l-.54-6.36H40.03Zm12.23-11.04c-.3-3.36-.66-9.78-.9-13.74h-.42c-1.38 3.84-3.9 9.78-5.64 13.74h6.96Z" style="stroke:#fff;stroke-miterlimit:10;stroke-width:2px;fill:url(#b)"/></svg>