<svg width="1444" height="806" viewBox="0 0 1444 806" fill="none" xmlns="http://www.w3.org/2000/svg">
<rect x="1" y="1" width="1440" height="800" fill="#141015" fill-opacity="0.7"/>
<rect x="1" y="1" width="1440" height="10" fill="black" fill-opacity="0.2"/>
<rect x="3" y="16" width="1440" height="10" fill="black" fill-opacity="0.2"/>
<rect x="1" y="721" width="1440" height="10" fill="black" fill-opacity="0.2"/>
<rect x="1" y="736" width="1440" height="10" fill="black" fill-opacity="0.2"/>
<rect x="1" y="31" width="1440" height="10" fill="black" fill-opacity="0.2"/>
<rect x="1" y="46" width="1440" height="10" fill="black" fill-opacity="0.2"/>
<rect x="1" y="61" width="1440" height="10" fill="black" fill-opacity="0.2"/>
<rect x="1" y="76" width="1440" height="10" fill="black" fill-opacity="0.2"/>
<rect x="1" y="91" width="1440" height="10" fill="black" fill-opacity="0.2"/>
<rect x="1" y="106" width="1440" height="10" fill="black" fill-opacity="0.2"/>
<rect x="1" y="121" width="1440" height="10" fill="black" fill-opacity="0.2"/>
<rect x="1" y="136" width="1440" height="10" fill="black" fill-opacity="0.2"/>
<rect x="1" y="151" width="1440" height="10" fill="black" fill-opacity="0.2"/>
<rect x="1" y="166" width="1440" height="10" fill="black" fill-opacity="0.2"/>
<rect x="1" y="181" width="1440" height="10" fill="black" fill-opacity="0.2"/>
<rect x="1" y="196" width="1440" height="10" fill="black" fill-opacity="0.2"/>
<rect x="1" y="211" width="1440" height="10" fill="black" fill-opacity="0.2"/>
<rect x="1" y="226" width="1440" height="10" fill="black" fill-opacity="0.2"/>
<rect x="1" y="241" width="1440" height="10" fill="black" fill-opacity="0.2"/>
<rect x="1" y="256" width="1440" height="10" fill="black" fill-opacity="0.2"/>
<rect x="1" y="271" width="1440" height="10" fill="black" fill-opacity="0.2"/>
<rect x="1" y="286" width="1440" height="10" fill="black" fill-opacity="0.2"/>
<rect x="1" y="301" width="1440" height="10" fill="black" fill-opacity="0.2"/>
<rect x="1" y="316" width="1440" height="10" fill="black" fill-opacity="0.2"/>
<rect x="1" y="331" width="1440" height="10" fill="black" fill-opacity="0.2"/>
<rect x="1" y="346" width="1440" height="10" fill="black" fill-opacity="0.2"/>
<rect x="1" y="361" width="1440" height="10" fill="black" fill-opacity="0.2"/>
<rect x="1" y="376" width="1440" height="10" fill="black" fill-opacity="0.2"/>
<rect x="1" y="391" width="1440" height="10" fill="black" fill-opacity="0.2"/>
<rect x="1" y="406" width="1440" height="10" fill="black" fill-opacity="0.2"/>
<rect x="1" y="421" width="1440" height="10" fill="black" fill-opacity="0.2"/>
<rect x="1" y="436" width="1440" height="10" fill="black" fill-opacity="0.2"/>
<rect x="1" y="451" width="1440" height="10" fill="black" fill-opacity="0.2"/>
<rect x="1" y="466" width="1440" height="10" fill="black" fill-opacity="0.2"/>
<rect x="1" y="481" width="1440" height="10" fill="black" fill-opacity="0.2"/>
<rect x="1" y="496" width="1440" height="10" fill="black" fill-opacity="0.2"/>
<rect x="1" y="511" width="1440" height="10" fill="black" fill-opacity="0.2"/>
<rect x="1" y="526" width="1440" height="10" fill="black" fill-opacity="0.2"/>
<rect x="1" y="541" width="1440" height="10" fill="black" fill-opacity="0.2"/>
<rect x="1" y="556" width="1440" height="10" fill="black" fill-opacity="0.2"/>
<rect x="1" y="571" width="1440" height="10" fill="black" fill-opacity="0.2"/>
<rect x="1" y="586" width="1440" height="10" fill="black" fill-opacity="0.2"/>
<rect x="1" y="601" width="1440" height="10" fill="black" fill-opacity="0.2"/>
<rect x="1" y="616" width="1440" height="10" fill="black" fill-opacity="0.2"/>
<rect x="1" y="631" width="1440" height="10" fill="black" fill-opacity="0.2"/>
<rect x="1" y="646" width="1440" height="10" fill="black" fill-opacity="0.2"/>
<rect x="1" y="661" width="1440" height="10" fill="black" fill-opacity="0.2"/>
<rect x="1" y="676" width="1440" height="10" fill="black" fill-opacity="0.2"/>
<rect x="1" y="691" width="1440" height="10" fill="black" fill-opacity="0.2"/>
<rect x="1" y="706" width="1440" height="10" fill="black" fill-opacity="0.2"/>
<rect x="3" y="781" width="1440" height="10" fill="black" fill-opacity="0.2"/>
<rect x="3" y="796" width="1440" height="10" fill="black" fill-opacity="0.2"/>
<rect x="3" y="751" width="1440" height="10" fill="black" fill-opacity="0.2"/>
<rect x="3" y="766" width="1440" height="10" fill="black" fill-opacity="0.2"/>
<path d="M81 1V801" stroke="#8F00FF" stroke-opacity="0.5" stroke-width="2"/>
<path d="M1 1V801" stroke="#8F00FF" stroke-opacity="0.5" stroke-width="2"/>
<path d="M161 1V801" stroke="#8F00FF" stroke-opacity="0.5" stroke-width="2"/>
<path d="M321 1V801" stroke="#8F00FF" stroke-opacity="0.5" stroke-width="2"/>
<path d="M241 1V801" stroke="#8F00FF" stroke-opacity="0.5" stroke-width="2"/>
<path d="M401 1V801" stroke="#8F00FF" stroke-opacity="0.5" stroke-width="2"/>
<path d="M561 1V801" stroke="#8F00FF" stroke-opacity="0.5" stroke-width="2"/>
<path d="M481 1V801" stroke="#8F00FF" stroke-opacity="0.5" stroke-width="2"/>
<path d="M641 1V801" stroke="#8F00FF" stroke-opacity="0.5" stroke-width="2"/>
<path d="M801 1V801" stroke="#8F00FF" stroke-opacity="0.5" stroke-width="2"/>
<path d="M721 1V801" stroke="#8F00FF" stroke-opacity="0.5" stroke-width="2"/>
<path d="M881 1V801" stroke="#8F00FF" stroke-opacity="0.5" stroke-width="2"/>
<path d="M963 1V801" stroke="#8F00FF" stroke-opacity="0.5" stroke-width="2"/>
<path d="M1123 1V801" stroke="#8F00FF" stroke-opacity="0.5" stroke-width="2"/>
<path d="M1043 1V801" stroke="#8F00FF" stroke-opacity="0.5" stroke-width="2"/>
<path d="M1203 1V801" stroke="#8F00FF" stroke-opacity="0.5" stroke-width="2"/>
<path d="M1363 1V801" stroke="#8F00FF" stroke-opacity="0.5" stroke-width="2"/>
<path d="M1283 1V801" stroke="#8F00FF" stroke-opacity="0.5" stroke-width="2"/>
<path d="M1443 1V801" stroke="#8F00FF" stroke-opacity="0.5" stroke-width="2"/>
<path d="M1 1H1441" stroke="#8F00FF" stroke-opacity="0.5" stroke-width="2"/>
<path d="M1 81H1441" stroke="#8F00FF" stroke-opacity="0.5" stroke-width="2"/>
<path d="M1 161H1441" stroke="#8F00FF" stroke-opacity="0.5" stroke-width="2"/>
<path d="M1 241H1441" stroke="#8F00FF" stroke-opacity="0.5" stroke-width="2"/>
<path d="M1 321H1441" stroke="#8F00FF" stroke-opacity="0.5" stroke-width="2"/>
<path d="M1 401H1441" stroke="#8F00FF" stroke-opacity="0.5" stroke-width="2"/>
<path d="M1 481H1441" stroke="#8F00FF" stroke-opacity="0.5" stroke-width="2"/>
<path d="M1 561H1441" stroke="#8F00FF" stroke-opacity="0.5" stroke-width="2"/>
<path d="M1 641H1441" stroke="#8F00FF" stroke-opacity="0.5" stroke-width="2"/>
<path d="M1 721H1441" stroke="#8F00FF" stroke-opacity="0.5" stroke-width="2"/>
<path d="M1 801H1441" stroke="#8F00FF" stroke-opacity="0.5" stroke-width="2"/>
</svg>
