<svg width="1444" height="802" viewBox="0 0 1444 802" fill="none" xmlns="http://www.w3.org/2000/svg">
<rect x="0.999756" y="1" width="1440" height="800" fill="#141015" fill-opacity="0.7"/>
<path d="M80.9998 1V801" stroke="#8F00FF" stroke-opacity="0.5" stroke-width="2"/>
<path d="M0.999756 1V801" stroke="#8F00FF" stroke-opacity="0.5" stroke-width="2"/>
<path d="M161 1V801" stroke="#8F00FF" stroke-opacity="0.5" stroke-width="2"/>
<path d="M321 1V801" stroke="#8F00FF" stroke-opacity="0.5" stroke-width="2"/>
<path d="M241 1V801" stroke="#8F00FF" stroke-opacity="0.5" stroke-width="2"/>
<path d="M401 1V801" stroke="#8F00FF" stroke-opacity="0.5" stroke-width="2"/>
<path d="M561 1V801" stroke="#8F00FF" stroke-opacity="0.5" stroke-width="2"/>
<path d="M481 1V801" stroke="#8F00FF" stroke-opacity="0.5" stroke-width="2"/>
<path d="M641 1V801" stroke="#8F00FF" stroke-opacity="0.5" stroke-width="2"/>
<path d="M801 1V801" stroke="#8F00FF" stroke-opacity="0.5" stroke-width="2"/>
<path d="M721 1V801" stroke="#8F00FF" stroke-opacity="0.5" stroke-width="2"/>
<path d="M881 1V801" stroke="#8F00FF" stroke-opacity="0.5" stroke-width="2"/>
<path d="M963 1V801" stroke="#8F00FF" stroke-opacity="0.5" stroke-width="2"/>
<path d="M1123 1V801" stroke="#8F00FF" stroke-opacity="0.5" stroke-width="2"/>
<path d="M1043 1V801" stroke="#8F00FF" stroke-opacity="0.5" stroke-width="2"/>
<path d="M1203 1V801" stroke="#8F00FF" stroke-opacity="0.5" stroke-width="2"/>
<path d="M1363 1V801" stroke="#8F00FF" stroke-opacity="0.5" stroke-width="2"/>
<path d="M1283 1V801" stroke="#8F00FF" stroke-opacity="0.5" stroke-width="2"/>
<path d="M1443 1V801" stroke="#8F00FF" stroke-opacity="0.5" stroke-width="2"/>
<path d="M0.999756 1H1441" stroke="#8F00FF" stroke-opacity="0.5" stroke-width="2"/>
<path d="M0.999756 81H1441" stroke="#8F00FF" stroke-opacity="0.5" stroke-width="2"/>
<path d="M0.999756 161H1441" stroke="#8F00FF" stroke-opacity="0.5" stroke-width="2"/>
<path d="M0.999756 241H1441" stroke="#8F00FF" stroke-opacity="0.5" stroke-width="2"/>
<path d="M0.999756 321H1441" stroke="#8F00FF" stroke-opacity="0.5" stroke-width="2"/>
<path d="M0.999756 401H1441" stroke="#8F00FF" stroke-opacity="0.5" stroke-width="2"/>
<path d="M0.999756 481H1441" stroke="#8F00FF" stroke-opacity="0.5" stroke-width="2"/>
<path d="M0.999756 561H1441" stroke="#8F00FF" stroke-opacity="0.5" stroke-width="2"/>
<path d="M0.999756 641H1441" stroke="#8F00FF" stroke-opacity="0.5" stroke-width="2"/>
<path d="M0.999756 721H1441" stroke="#8F00FF" stroke-opacity="0.5" stroke-width="2"/>
<path d="M0.999756 801H1441" stroke="#8F00FF" stroke-opacity="0.5" stroke-width="2"/>
</svg>
