<svg width="115" height="138" viewBox="0 0 115 138" fill="none" xmlns="http://www.w3.org/2000/svg">
<path d="M114.239 69.4984C114.239 92.4972 95.6276 111.138 72.6749 111.138C59.844 111.138 48.3727 105.328 40.7587 96.1791C37.6265 92.4165 40.0436 86.687 44.9182 86.3239H44.9283C46.8116 86.1826 48.695 86.9089 49.9035 88.3817C55.3219 94.9383 63.52 99.1044 72.6749 99.1044C89.0006 99.1044 102.234 85.8498 102.234 69.4984C102.234 53.147 89.0006 39.8924 72.6749 39.8924C63.52 39.8924 55.3219 44.0685 49.9035 50.6252C48.695 52.0879 46.8116 52.8242 44.9283 52.683H44.9182C40.0436 52.3199 37.6265 46.5903 40.7587 42.8278C48.3727 33.6787 59.844 27.8584 72.6749 27.8584C95.6276 27.8584 114.239 46.4996 114.239 69.4984Z" fill="#00805E" stroke="#00805E" stroke-width="0.75" stroke-miterlimit="10"/>
<path d="M75.2131 62.9434H29.6804C26.065 62.9434 23.134 65.8789 23.134 69.5C23.134 73.1212 26.065 76.0567 29.6804 76.0567H75.2131C78.8286 76.0567 81.7595 73.1212 81.7595 69.5C81.7595 65.8789 78.8286 62.9434 75.2131 62.9434Z" fill="#6CBFA5"/>
<path d="M14.0999 68.995C14.0999 97.2089 35.4109 120.641 62.7547 123.91C66.2898 124.333 68.9285 127.349 68.9285 130.92C68.9285 135.127 65.2826 138.445 61.1131 137.951C26.7596 133.856 0 104.431 0 68.995C0 33.5586 26.7697 4.1342 61.1131 0.0488821C65.2826 -0.445391 68.9285 2.8733 68.9285 7.07967C68.9285 10.6405 66.2797 13.6666 62.7547 14.0903C35.4109 17.3585 14.0999 40.8012 14.0999 68.995Z" fill="#6CBFA5"/>
</svg>
