<svg data-name="Calque 1" xmlns="http://www.w3.org/2000/svg" xmlns:xlink="http://www.w3.org/1999/xlink" viewBox="0 0 560 190"><defs><linearGradient id="a" data-name="Dégradé sans nom 274" x1="33.42" y1="118.61" x2="33.42" y2="72.65" gradientUnits="userSpaceOnUse"><stop offset="0" stop-color="#0ff"/><stop offset=".57" stop-color="#8f00ff"/><stop offset="1" stop-color="#ff00d4"/></linearGradient><linearGradient id="b" data-name="Dégradé sans nom 274" x1="73.17" y1="117.89" x2="73.17" xlink:href="#a"/><linearGradient id="c" data-name="Dégradé sans nom 274" x1="118.23" y1="118.97" x2="118.23" y2="71.57" xlink:href="#a"/><linearGradient id="d" data-name="Dégradé sans nom 274" x1="166.47" y1="118.97" x2="166.47" y2="71.57" xlink:href="#a"/><linearGradient id="e" data-name="Dégradé sans nom 274" x1="216.33" y1="117.89" x2="216.33" xlink:href="#a"/><linearGradient id="f" data-name="Dégradé sans nom 274" x1="273.86" y1="117.89" x2="273.86" xlink:href="#a"/><linearGradient id="g" data-name="Dégradé sans nom 274" x1="324.6" y1="117.89" x2="324.6" xlink:href="#a"/><linearGradient id="h" data-name="Dégradé sans nom 274" x1="366.84" y1="117.89" x2="366.84" xlink:href="#a"/><linearGradient id="i" data-name="Dégradé sans nom 274" x1="412.7" y1="117.89" x2="412.7" xlink:href="#a"/><linearGradient id="j" data-name="Dégradé sans nom 274" x1="467.85" y1="117.89" x2="467.85" xlink:href="#a"/><linearGradient id="k" data-name="Dégradé sans nom 274" x1="518.81" y1="117.89" x2="518.81" xlink:href="#a"/></defs><path d="M45.24 101.45c-1.74 8.28-3.96 15.66-18.66 15.66-4.02 0-7.5-.3-10.86-.96l2.4-11.16c1.02.24 2.46.36 3.78.36 3.9 0 5.1-.9 5.76-4.08l4.12-19.22c.99-4.61 5.06-7.9 9.78-7.9h9.5l-5.82 27.3Z" style="stroke:url(#a);fill:#000;stroke-miterlimit:10;stroke-width:3px"/><path d="M90.06 100.73H70.02l-.96 4.56h23.1l-4.32 11.1H49.62l8.94-42.24h38.16l-2.34 11.1H73.32l-.9 4.38h20.04l-2.4 11.1Z" style="stroke:url(#b);fill:#000;stroke-miterlimit:10;stroke-width:3px"/><path d="M111.72 103.43c.12 1.8 1.32 3.9 5.28 3.9 2.16 0 3.84-.66 3.84-2.52 0-1.44-.36-2.64-6.54-4.14-11.7-2.88-14.82-7.02-14.82-12.84 0-9.48 8.76-14.76 20.64-14.76 13.86 0 20.94 5.1 21.24 13.5h-15.9c-.18-1.8-1.02-3.48-4.26-3.48-1.74 0-3.18.96-3.18 2.52s1.62 2.52 5.76 3.48c12.12 2.88 16.14 7.02 16.14 13.5 0 9.66-9.36 14.88-22.86 14.88s-20.88-4.98-21.84-14.04h16.5Z" style="stroke:url(#c);fill:#000;stroke-miterlimit:10;stroke-width:3px"/><path d="M159.95 103.43c.12 1.8 1.32 3.9 5.28 3.9 2.16 0 3.84-.66 3.84-2.52 0-1.44-.36-2.64-6.54-4.14-11.7-2.88-14.82-7.02-14.82-12.84 0-9.48 8.76-14.76 20.64-14.76 13.86 0 20.94 5.1 21.24 13.5h-15.9c-.18-1.8-1.02-3.48-4.26-3.48-1.74 0-3.18.96-3.18 2.52s1.62 2.52 5.76 3.48c12.12 2.88 16.14 7.02 16.14 13.5 0 9.66-9.36 14.88-22.86 14.88s-20.88-4.98-21.84-14.04h16.5Z" style="stroke:url(#d);fill:#000;stroke-miterlimit:10;stroke-width:3px"/><path d="m198.06 116.39 3.12-14.64c.18-.84.06-1.2-.3-2.04l-10.14-25.56h18.48c1.08 5.04 2.4 11.46 3.18 15.96 2.4-4.14 6.6-10.5 10.14-15.96h18.48l-21.6 26.94c-.36.42-.66 1.02-.9 2.04l-2.76 13.26h-17.7Z" style="stroke:url(#e);fill:#000;stroke-miterlimit:10;stroke-width:3px"/><path d="m269.21 110.03-3.12 6.36h-18.06l20.08-37.01c1.75-3.22 5.12-5.23 8.79-5.23h17.33l6.24 42.24h-17.46l-.54-6.36h-13.26Zm12.24-11.04c-.3-3.36-.66-9.78-.9-13.74h-.42c-1.38 3.84-3.9 9.78-5.64 13.74h6.96Z" style="stroke:url(#f);fill:#000;stroke-miterlimit:10;stroke-width:3px"/><path d="M313.01 74.15h17.7l-6.6 31.14h20.7l-4.14 11.1h-36.6l8.94-42.24Z" style="stroke:url(#g);fill:#000;stroke-miterlimit:10;stroke-width:3px"/><path d="M355.25 74.15h17.7l-6.6 31.14h20.7l-4.14 11.1h-36.6l8.94-42.24Z" style="stroke:url(#h);fill:#000;stroke-miterlimit:10;stroke-width:3px"/><path d="m408.05 110.03-3.12 6.36h-18.06l20.08-37.01c1.75-3.22 5.12-5.23 8.79-5.23h17.33l6.24 42.24h-17.46l-.54-6.36h-13.26Zm12.24-11.04c-.3-3.36-.66-9.78-.9-13.74h-.42c-1.38 3.84-3.9 9.78-5.64 13.74h6.96Z" style="stroke:url(#i);fill:#000;stroke-miterlimit:10;stroke-width:3px"/><path d="m463.31 101.33-3.12 15.06h-17.28l8.88-42.24h25.74c10.5 0 15.6 4.86 15.6 11.34 0 6-3.78 9.84-9.6 11.34 2.94 1.56 5.64 4.62 4.02 12.12-.54 2.52-1.02 5.34-.9 7.44h-16.74c-.48-1.62-.24-4.68.72-9 .96-4.2.72-6.06-3.42-6.06h-3.9Zm1.98-9.42h4.86c3.24 0 4.86-1.8 4.86-4.14 0-2.1-1.2-3.24-3.6-3.24h-4.56l-1.56 7.38Z" style="stroke:url(#j);fill:#000;stroke-miterlimit:10;stroke-width:3px"/><path d="M501.59 74.15h22.08c14.64 0 21.66 9 21.66 18.54 0 15.84-11.88 23.7-27.66 23.7h-25.02l8.94-42.24Zm10.98 31.62h4.62c6.72 0 9.42-6.78 9.42-13.26 0-5.16-1.38-7.74-6.3-7.74h-3.36l-4.38 21Z" style="fill:#000;stroke-miterlimit:10;stroke-width:3px;stroke:url(#k)"/></svg>